<?xml version="1.0" standalone="no"?>
<!DOCTYPE svg PUBLIC "-//W3C//DTD SVG 20010904//EN"
 "http://www.w3.org/TR/2001/REC-SVG-20010904/DTD/svg10.dtd">
<svg version="1.0" xmlns="http://www.w3.org/2000/svg"
 width="88.000000pt" height="104.000000pt" viewBox="0 0 88.000000 104.000000"
 preserveAspectRatio="xMidYMid meet">

<g transform="translate(0.000000,104.000000) scale(0.100000,-0.100000)"
fill="#000000" stroke="none">
<path d="M271 971 c-20 -20 -21 -32 -21 -299 0 -258 1 -280 18 -295 25 -22 48
-21 72 3 17 17 20 33 20 125 l0 105 85 0 85 0 0 -94 c0 -112 9 -143 46 -152
41 -10 76 34 72 89 -4 58 -28 61 -28 4 0 -47 -18 -74 -45 -63 -12 4 -15 28
-15 126 l0 121 -112 -3 -113 -3 -3 -118 c-2 -97 -5 -119 -19 -124 -38 -15 -43
19 -43 283 0 227 2 254 18 274 30 37 41 7 44 -121 l3 -114 38 -3 c39 -3 53 14
15 20 -22 3 -23 8 -28 115 -3 62 -9 116 -15 121 -23 22 -54 23 -74 3z"/>
<path d="M555 965 c-23 -23 -25 -31 -25 -130 l0 -105 -40 0 c-22 0 -40 -4 -40
-10 0 -5 25 -10 55 -10 l55 0 0 119 c0 93 3 121 15 131 12 10 18 10 30 0 12
-10 15 -46 15 -206 0 -169 2 -194 16 -194 13 0 15 24 12 196 -3 192 -3 196
-27 215 -30 25 -37 24 -66 -6z"/>
<path d="M70 257 c-21 -17 -16 -157 5 -157 12 0 15 17 15 85 0 47 -1 85 -2 85
-2 0 -10 -6 -18 -13z"/>
<path d="M211 159 c29 -53 34 -59 42 -42 13 29 -26 103 -54 103 -19 0 -18 -4
12 -61z"/>
<path d="M270 200 c6 -11 13 -20 15 -20 2 0 9 9 15 20 9 18 8 20 -15 20 -23 0
-24 -2 -15 -20z"/>
<path d="M330 207 c-21 -17 -16 -167 6 -167 11 0 14 19 14 90 0 50 -1 90 -2
90 -2 0 -10 -6 -18 -13z"/>
<path d="M395 159 c0 -32 3 -59 7 -59 4 0 15 11 24 25 19 29 12 70 -14 84 -15
8 -17 3 -17 -50z"/>
<path d="M617 202 c-20 -22 -22 -73 -5 -90 20 -20 23 -14 23 48 0 33 0 60 -1
60 0 0 -8 -8 -17 -18z"/>
<path d="M685 159 c0 -64 6 -72 30 -35 18 28 11 72 -14 85 -14 8 -16 2 -16
-50z"/>
<path d="M815 200 c10 -11 20 -20 22 -20 1 0 3 9 3 20 0 14 -7 20 -22 20 -20
0 -21 -1 -3 -20z"/>
<path d="M130 155 c0 -48 2 -55 20 -55 16 0 20 7 20 36 0 38 -15 74 -30 74 -6
0 -10 -25 -10 -55z"/>
<path d="M477 203 c-4 -3 -7 -28 -7 -55 0 -36 4 -48 15 -48 12 0 15 13 15 55
0 51 -7 65 -23 48z"/>
<path d="M540 156 c0 -44 3 -56 16 -56 12 0 14 10 12 52 -4 74 -28 77 -28 4z"/>
<path d="M754 172 c14 -27 72 -60 84 -47 15 15 -28 56 -76 70 -23 7 -23 6 -8
-23z"/>
<path d="M742 118 c3 -7 13 -15 24 -17 16 -3 17 -1 5 13 -16 19 -34 21 -29 4z"/>
<path d="M185 90 c-8 -13 3 -30 21 -30 18 0 18 14 0 29 -10 8 -16 9 -21 1z"/>
</g>
</svg>
