<?xml version="1.0" standalone="no"?>
<!DOCTYPE svg PUBLIC "-//W3C//DTD SVG 20010904//EN"
 "http://www.w3.org/TR/2001/REC-SVG-20010904/DTD/svg10.dtd">
<svg version="1.0" xmlns="http://www.w3.org/2000/svg"
 width="173.000000pt" height="91.000000pt" viewBox="0 0 173.000000 91.000000"
 preserveAspectRatio="xMidYMid meet">

<g transform="translate(0.000000,91.000000) scale(0.100000,-0.100000)"
fill="#000000" stroke="none">
<path d="M140 851 c-19 -20 -15 -65 5 -57 8 3 18 0 22 -7 4 -7 10 0 15 18 6
23 3 34 -10 46 -16 16 -18 16 -32 0z"/>
<path d="M237 849 c-12 -11 -15 -19 -7 -24 6 -4 8 -16 4 -28 -5 -17 -4 -19 6
-10 7 6 18 10 24 7 6 -2 16 6 22 19 8 19 7 26 -10 38 -19 14 -23 14 -39 -2z"/>
<path d="M338 850 c-11 -13 -14 -22 -7 -26 6 -3 9 -14 6 -23 -3 -12 3 -16 23
-16 18 0 26 4 23 13 -3 7 0 18 6 25 7 10 5 18 -9 30 -24 20 -21 20 -42 -3z"/>
<path d="M441 849 c-14 -11 -17 -20 -11 -24 6 -4 9 -14 6 -22 -4 -9 0 -13 12
-11 9 1 23 -2 31 -6 11 -7 13 -5 8 9 -4 9 -3 23 2 29 7 8 5 17 -8 28 -16 13
-20 13 -40 -3z"/>
<path d="M544 851 c-25 -21 -11 -58 22 -58 29 0 38 39 14 60 -14 12 -19 12
-36 -2z"/>
<path d="M234 731 c-2 -2 -4 -24 -4 -48 l0 -43 -39 0 c-70 0 -71 -4 -71 -327
l0 -283 240 0 240 0 0 283 c0 323 -1 327 -71 327 l-39 0 0 44 0 45 -126 3
c-69 2 -128 1 -130 -1z m106 -56 c0 -18 5 -25 20 -25 15 0 20 7 20 25 0 16 6
25 15 25 12 0 15 -14 15 -65 0 -50 -3 -65 -14 -65 -8 0 -16 10 -18 22 -5 34
-38 37 -38 4 0 -16 -6 -26 -15 -26 -12 0 -15 14 -15 65 0 51 3 65 15 65 9 0
15 -9 15 -25z m-108 -112 l3 -38 125 0 125 0 3 38 c3 36 5 38 35 35 l32 -3 3
-257 2 -258 -55 0 -55 0 0 65 0 65 -40 0 -40 0 0 -65 c0 -37 -4 -65 -10 -65
-6 0 -10 28 -10 65 l0 65 -40 0 -40 0 0 -65 0 -65 -55 0 -55 0 0 253 c0 140 3
257 7 260 3 4 19 7 34 7 25 0 28 -4 31 -37z"/>
<path d="M210 445 l0 -45 40 0 40 0 0 45 0 45 -40 0 -40 0 0 -45z"/>
<path d="M327 484 c-4 -4 -7 -25 -7 -46 0 -38 0 -38 41 -38 l40 0 -3 43 c-3
39 -5 42 -33 45 -17 2 -34 0 -38 -4z"/>
<path d="M430 445 c0 -45 0 -45 35 -45 35 0 35 0 35 45 0 45 0 45 -35 45 -35
0 -35 0 -35 -45z"/>
<path d="M210 304 l0 -45 38 3 c36 3 37 4 40 46 l3 42 -40 0 -41 0 0 -46z"/>
<path d="M322 308 c3 -42 4 -43 38 -43 34 0 35 1 38 43 l3 42 -41 0 -41 0 3
-42z"/>
<path d="M430 305 c0 -45 0 -45 35 -45 35 0 35 0 35 45 0 45 0 45 -35 45 -35
0 -35 0 -35 -45z"/>
<path d="M974 730 c-81 -33 -85 -176 -6 -209 54 -22 113 13 129 77 10 40 -14
101 -50 122 -35 22 -42 23 -73 10z m68 -47 c20 -18 25 -82 8 -114 -13 -24 -72
-26 -91 -2 -8 9 -14 35 -14 58 0 23 6 49 14 58 17 22 59 22 83 0z"/>
<path d="M720 620 c0 -91 3 -110 15 -110 11 0 15 12 15 50 l0 50 45 0 45 0 0
-50 c0 -38 4 -50 15 -50 12 0 15 19 15 110 0 91 -3 110 -15 110 -11 0 -15 -12
-15 -45 l0 -45 -45 0 -45 0 0 45 c0 33 -4 45 -15 45 -12 0 -15 -19 -15 -110z"/>
<path d="M1120 715 c0 -9 9 -15 25 -15 25 0 25 0 25 -96 0 -86 2 -95 18 -92
14 3 17 17 20 96 3 90 3 92 27 92 16 0 25 6 25 15 0 12 -14 15 -70 15 -56 0
-70 -3 -70 -15z"/>
<path d="M1292 623 l3 -108 55 0 c42 0 55 3 55 15 0 11 -9 14 -37 12 -37 -3
-38 -3 -38 32 0 33 2 36 30 36 20 0 30 5 30 15 0 10 -10 15 -30 15 -27 0 -30
3 -30 30 0 28 2 30 40 30 29 0 40 4 40 15 0 12 -13 15 -60 15 l-61 0 3 -107z"/>
<path d="M1442 623 l3 -108 53 -3 c47 -3 52 -1 52 17 0 17 -6 21 -35 21 l-35
0 0 90 c0 84 -1 90 -20 90 -20 0 -21 -5 -18 -107z"/>
<path d="M710 226 c0 -96 3 -116 15 -116 11 0 15 11 15 40 0 33 3 40 20 40 14
0 25 -12 36 -40 11 -27 22 -40 35 -40 23 0 23 1 2 45 -16 33 -16 37 0 64 37
63 10 108 -70 118 l-53 6 0 -117z m93 53 c16 -26 1 -49 -33 -49 -26 0 -30 3
-30 28 0 16 3 32 7 36 12 11 45 2 56 -15z"/>
<path d="M930 327 c-15 -7 -31 -29 -39 -53 -35 -101 40 -197 121 -153 23 12
48 67 48 105 0 39 -28 90 -56 103 -31 14 -43 14 -74 -2z m72 -44 c11 -10 18
-30 18 -55 0 -55 -15 -78 -50 -78 -35 0 -50 23 -50 75 0 69 39 97 82 58z"/>
<path d="M1096 318 c3 -13 20 -49 35 -80 16 -32 29 -73 29 -93 0 -24 5 -35 15
-35 11 0 15 11 15 40 0 26 12 65 35 110 30 60 33 71 20 76 -19 8 -17 10 -48
-51 l-25 -49 -26 52 c-15 29 -33 52 -42 52 -11 0 -14 -6 -8 -22z"/>
<path d="M1346 328 c-4 -11 -41 -130 -62 -200 -4 -13 0 -18 15 -18 14 0 23 9
27 25 9 37 81 37 90 0 4 -16 13 -25 25 -25 22 0 22 3 -20 140 -22 70 -30 86
-49 88 -12 2 -24 -3 -26 -10z m43 -110 c1 -12 -6 -18 -20 -18 -18 0 -20 4 -14
33 4 17 10 36 13 42 6 10 19 -26 21 -57z"/>
<path d="M1497 334 c-4 -4 -7 -56 -7 -116 l0 -108 60 0 c53 0 60 2 60 20 0 17
-7 20 -40 20 l-39 0 -3 92 c-3 84 -12 111 -31 92z"/>
</g>
</svg>
